<?xml version="1.0" standalone="no"?>
<!DOCTYPE svg PUBLIC "-//W3C//DTD SVG 20010904//EN"
 "http://www.w3.org/TR/2001/REC-SVG-20010904/DTD/svg10.dtd">
<svg version="1.0" xmlns="http://www.w3.org/2000/svg"
 width="700.000000pt" height="700.000000pt" viewBox="0 0 700.000000 700.000000"
 preserveAspectRatio="xMidYMid meet">
<metadata>
Created by potrace 1.14, written by Peter Selinger 2001-2017
</metadata>
<g transform="translate(0.000000,700.000000) scale(0.100000,-0.100000)"
fill="#000000" stroke="none">
<path d="M1735 6558 c-183 -23 -327 -139 -396 -318 -19 -47 -22 -81 -25 -242
-3 -184 -3 -188 20 -214 35 -41 79 -35 159 21 36 25 91 57 124 72 l58 27 338
1 337 1 -42 -45 c-24 -24 -54 -57 -68 -71 -31 -33 -343 -359 -425 -445 -118
-122 -370 -388 -399 -419 -146 -160 -263 -394 -300 -601 -14 -79 -18 -115 -21
-193 -8 -266 71 -535 219 -747 173 -248 427 -427 711 -500 138 -36 188 -38
775 -40 l585 -1 3 -329 2 -330 -432 0 c-427 0 -434 -1 -479 -22 -87 -42 -155
-125 -174 -212 -9 -43 -9 -148 0 -191 13 -61 70 -108 140 -117 93 -11 174 63
179 165 l2 47 382 3 382 2 0 -548 0 -549 -86 1 c-145 2 -207 -31 -235 -124
-22 -72 19 -157 92 -189 53 -24 355 -22 414 3 54 23 100 69 124 125 19 45 20
68 20 597 0 302 0 579 1 617 l0 67 383 0 c323 0 392 3 438 16 107 32 187 97
233 190 23 47 46 151 40 186 -20 133 -16 126 -268 448 -58 74 -106 137 -106
140 0 3 287 5 638 6 709 1 674 -2 746 70 58 58 70 89 71 179 0 96 -10 184 -35
295 -6 25 -12 55 -14 66 -20 106 -110 352 -182 494 -114 226 -254 420 -435
600 -160 160 -297 266 -495 383 -224 133 -585 259 -834 292 -25 3 -61 8 -80
11 -19 3 -109 7 -200 9 -158 4 -178 2 -340 -31 -50 -10 -168 -53 -246 -90
-174 -81 -225 -124 -637 -533 -213 -212 -397 -391 -410 -398 -12 -7 -45 -12
-73 -13 -56 0 -101 24 -138 73 -27 37 -29 130 -3 167 9 14 275 284 590 600
600 602 622 627 666 756 27 82 31 107 31 194 1 76 -18 166 -46 230 -38 85 -53
108 -124 179 -102 104 -213 161 -345 177 -71 9 -739 10 -810 2z m2299 -3738
c35 -37 456 -579 456 -588 0 -5 -6 -16 -13 -26 -12 -17 -39 -18 -381 -18 -203
1 -370 3 -372 5 -4 4 -6 335 -4 592 l0 60 145 0 c141 -1 146 -1 169 -25z"/>
</g>
</svg>
